<svg width="16" height="16" viewBox="0 0 16 16" fill="none" xmlns="http://www.w3.org/2000/svg">
<path d="M6.29004 15.4692C5.81689 15.4692 5.45996 15.2949 5.13623 14.9048L0.844727 9.63379C0.587402 9.33496 0.487793 9.05273 0.487793 8.75391C0.487793 8.06494 0.994141 7.56689 1.69971 7.56689C2.11475 7.56689 2.40527 7.72461 2.6875 8.06494L6.25684 12.564L13.2461 1.50732C13.5366 1.04248 13.8271 0.876465 14.3086 0.876465C15.0059 0.876465 15.5039 1.36621 15.5039 2.04688C15.5039 2.3042 15.4209 2.57812 15.2217 2.87695L7.45215 14.8633C7.17822 15.27 6.78809 15.4692 6.29004 15.4692Z" fill="#007AFF"/>
</svg>
