<svg width="39" height="42" viewBox="0 0 39 42" fill="none" xmlns="http://www.w3.org/2000/svg">
<g clip-path="url(#clip0_6304_15273)">
<path d="M33.3955 16.7656C34.0762 16.7656 34.4248 16.4004 34.4248 15.7197V11.4697C34.4248 8.26562 32.7812 6.62207 29.5439 6.62207H25.2773C24.6133 6.62207 24.2314 6.9873 24.2314 7.63477C24.2314 8.29883 24.6133 8.66406 25.2773 8.66406H29.4941C31.3203 8.66406 32.3828 9.66016 32.3828 11.5693V15.7197C32.3828 16.4004 32.748 16.7656 33.3955 16.7656ZM5.60449 16.7656C6.26855 16.7656 6.63379 16.4004 6.63379 15.7197V11.5693C6.63379 9.66016 7.64648 8.66406 9.50586 8.66406H13.7227C14.4033 8.66406 14.7686 8.29883 14.7686 7.63477C14.7686 6.9873 14.4033 6.62207 13.7227 6.62207H9.47266C6.23535 6.62207 4.5752 8.24902 4.5752 11.4697V15.7197C4.5752 16.4004 4.94043 16.7656 5.60449 16.7656ZM18.2549 24.3193H18.4043C19.9316 24.3193 20.7451 23.5059 20.7451 21.9619V16.7988C20.7451 16.2676 20.4131 15.9355 19.8984 15.9355C19.3506 15.9355 19.0352 16.2676 19.0352 16.7988V22.1113C19.0352 22.4102 18.8193 22.5762 18.5703 22.5762H18.0059C17.5244 22.5762 17.1592 22.9414 17.1592 23.4062C17.1592 23.9873 17.541 24.3193 18.2549 24.3193ZM13.6396 20.4512C14.3037 20.4512 14.752 19.9863 14.752 19.3223V17.0811C14.752 16.417 14.3037 15.9688 13.6396 15.9688C12.9922 15.9688 12.5439 16.417 12.5439 17.0811V19.3223C12.5439 19.9863 12.9922 20.4512 13.6396 20.4512ZM25.4434 20.4512C26.0908 20.4512 26.5391 19.9863 26.5391 19.3223V17.0811C26.5391 16.417 26.0908 15.9688 25.4434 15.9688C24.7793 15.9688 24.3311 16.417 24.3311 17.0811V19.3223C24.3311 19.9863 24.7793 20.4512 25.4434 20.4512ZM19.4834 29.3496C21.4092 29.3496 23.3516 28.5195 24.7461 27.125C24.8955 26.9756 25.0117 26.7598 25.0117 26.4775C25.0117 25.9795 24.6299 25.6309 24.1484 25.6309C23.8994 25.6309 23.7002 25.7139 23.418 26.0127C22.5049 26.9922 20.9941 27.6396 19.4834 27.6396C18.0059 27.6396 16.5117 26.9922 15.5322 26.0127C15.2998 25.7803 15.1006 25.6309 14.8018 25.6309C14.3203 25.6309 13.9385 25.9795 13.9385 26.4775C13.9385 26.7266 14.0547 26.9258 14.2041 27.125C15.5488 28.5693 17.541 29.3496 19.4834 29.3496ZM9.47266 36.4717H13.7227C14.4033 36.4717 14.7686 36.1064 14.7686 35.4424C14.7686 34.7783 14.4033 34.4131 13.7227 34.4131H9.50586C7.64648 34.4131 6.63379 33.4336 6.63379 31.5078V27.3574C6.63379 26.6934 6.26855 26.3115 5.60449 26.3115C4.92383 26.3115 4.5752 26.6934 4.5752 27.3574V31.624C4.5752 34.8281 6.23535 36.4717 9.47266 36.4717ZM25.2773 36.4717H29.5439C32.7812 36.4717 34.4248 34.8115 34.4248 31.624V27.3574C34.4248 26.6934 34.0596 26.3115 33.3955 26.3115C32.7314 26.3115 32.3828 26.6934 32.3828 27.3574V31.5078C32.3828 33.4336 31.3203 34.4131 29.4941 34.4131H25.2773C24.6133 34.4131 24.2314 34.7783 24.2314 35.4424C24.2314 36.1064 24.6133 36.4717 25.2773 36.4717Z" fill="black"/>
</g>
<defs>
<clipPath id="clip0_6304_15273">
<rect width="39" height="41" fill="white" transform="translate(0 0.5)"/>
</clipPath>
</defs>
</svg>
