<svg width="24" height="24" viewBox="0 0 24 24" fill="none" xmlns="http://www.w3.org/2000/svg">
  <path d="M15 10L19.553 7.724C19.7054 7.64806 19.8752 7.61405 20.0455 7.62565C20.2159 7.63725 20.3796 7.69402 20.5195 7.79031C20.6595 7.88661 20.7705 8.01905 20.8417 8.17376C20.9129 8.32847 20.9416 8.49983 20.925 8.67L20.925 15.33C20.9416 15.5002 20.9129 15.6715 20.8417 15.8262C20.7705 15.981 20.6595 16.1134 20.5195 16.2097C20.3796 16.306 20.2159 16.3627 20.0455 16.3744C19.8752 16.386 19.7054 16.3519 19.553 16.276L15 14V10Z" stroke="currentColor" stroke-width="2" stroke-linecap="round" stroke-linejoin="round"/>
  <rect x="3" y="6" width="12" height="12" rx="2" stroke="currentColor" stroke-width="2" stroke-linecap="round" stroke-linejoin="round"/>
</svg>

